<mxfile host="65bd71144e">
    <diagram id="buTQt5s7eNUg8cIWELHk" name="Page-1">
        <mxGraphModel dx="1859" dy="908" grid="1" gridSize="10" guides="1" tooltips="1" connect="1" arrows="1" fold="1" page="1" pageScale="1" pageWidth="827" pageHeight="1169" math="0" shadow="0">
            <root>
                <mxCell id="0"/>
                <mxCell id="1" parent="0"/>
                <mxCell id="34" value="" style="rounded=1;whiteSpace=wrap;html=1;fillColor=#E6E6E6;arcSize=6;" parent="1" vertex="1">
                    <mxGeometry x="120" y="210" width="700" height="360" as="geometry"/>
                </mxCell>
                <mxCell id="22" style="edgeStyle=none;html=1;exitX=1;exitY=0.5;exitDx=0;exitDy=0;entryX=0;entryY=0.75;entryDx=0;entryDy=0;" parent="1" source="2" target="4" edge="1">
                    <mxGeometry relative="1" as="geometry">
                        <mxPoint x="328" y="310" as="targetPoint"/>
                        <Array as="points"/>
                    </mxGeometry>
                </mxCell>
                <mxCell id="2" value="Broker" style="ellipse;whiteSpace=wrap;html=1;aspect=fixed;fillColor=#B3B3B3;strokeColor=#36393d;" parent="1" vertex="1">
                    <mxGeometry x="320" y="410" width="80" height="80" as="geometry"/>
                </mxCell>
                <mxCell id="4" value="Data Processing" style="rounded=1;whiteSpace=wrap;html=1;fillColor=#1ba1e2;strokeColor=#006EAF;fontColor=#ffffff;" parent="1" vertex="1">
                    <mxGeometry x="440" y="240" width="120" height="280" as="geometry"/>
                </mxCell>
                <mxCell id="19" style="edgeStyle=none;html=1;exitX=1;exitY=0.75;exitDx=0;exitDy=0;entryX=0;entryY=0.5;entryDx=0;entryDy=0;entryPerimeter=0;" parent="1" source="4" target="9" edge="1">
                    <mxGeometry relative="1" as="geometry">
                        <mxPoint x="800" y="510" as="sourcePoint"/>
                        <Array as="points">
                            <mxPoint x="600" y="510"/>
                        </Array>
                    </mxGeometry>
                </mxCell>
                <mxCell id="24" style="edgeStyle=none;html=1;exitX=1;exitY=0.5;exitDx=0;exitDy=0;entryX=0;entryY=0.5;entryDx=0;entryDy=0;" parent="1" source="7" target="2" edge="1">
                    <mxGeometry relative="1" as="geometry">
                        <Array as="points">
                            <mxPoint x="280" y="370"/>
                        </Array>
                    </mxGeometry>
                </mxCell>
                <mxCell id="7" value="MODBUS/TCP&lt;br&gt;Agent" style="rounded=1;whiteSpace=wrap;html=1;fillColor=#1ba1e2;strokeColor=#006EAF;fontColor=#ffffff;" parent="1" vertex="1">
                    <mxGeometry x="140" y="340" width="120" height="60" as="geometry"/>
                </mxCell>
                <mxCell id="21" style="edgeStyle=none;html=1;exitX=0.5;exitY=0;exitDx=0;exitDy=0;exitPerimeter=0;entryX=0.5;entryY=1;entryDx=0;entryDy=0;fillColor=#999999;" parent="1" source="9" target="10" edge="1">
                    <mxGeometry relative="1" as="geometry"/>
                </mxCell>
                <mxCell id="9" value="InfluxDB" style="shape=cylinder3;whiteSpace=wrap;html=1;boundedLbl=1;backgroundOutline=1;size=15;fillColor=#999999;strokeColor=#d6b656;" parent="1" vertex="1">
                    <mxGeometry x="680" y="470" width="80" height="80" as="geometry"/>
                </mxCell>
                <mxCell id="10" value="Grafana" style="rounded=1;whiteSpace=wrap;html=1;fillColor=#999999;strokeColor=#9673a6;" parent="1" vertex="1">
                    <mxGeometry x="660" y="370" width="120" height="60" as="geometry"/>
                </mxCell>
                <mxCell id="29" style="edgeStyle=none;html=1;exitX=1;exitY=0.5;exitDx=0;exitDy=0;entryX=0;entryY=0.5;entryDx=0;entryDy=0;" parent="1" source="16" target="2" edge="1">
                    <mxGeometry relative="1" as="geometry">
                        <mxPoint x="160" y="400" as="targetPoint"/>
                        <Array as="points"/>
                    </mxGeometry>
                </mxCell>
                <mxCell id="16" value="Device" style="rounded=1;whiteSpace=wrap;html=1;fillColor=#bac8d3;strokeColor=#23445d;" parent="1" vertex="1">
                    <mxGeometry x="-20" y="420" width="120" height="60" as="geometry"/>
                </mxCell>
                <mxCell id="44" style="edgeStyle=none;html=1;exitX=1;exitY=0.25;exitDx=0;exitDy=0;entryX=0;entryY=0.5;entryDx=0;entryDy=0;entryPerimeter=0;" edge="1" parent="1" source="4" target="42">
                    <mxGeometry relative="1" as="geometry">
                        <mxPoint x="660" y="270" as="sourcePoint"/>
                        <Array as="points">
                            <mxPoint x="600" y="270"/>
                        </Array>
                    </mxGeometry>
                </mxCell>
                <mxCell id="31" value="Device" style="rounded=1;whiteSpace=wrap;html=1;fillColor=#bac8d3;strokeColor=#23445d;" parent="1" vertex="1">
                    <mxGeometry x="-20" y="340" width="120" height="60" as="geometry"/>
                </mxCell>
                <mxCell id="33" style="edgeStyle=none;html=1;exitX=1;exitY=0.5;exitDx=0;exitDy=0;entryX=0;entryY=0.5;entryDx=0;entryDy=0;startArrow=classic;startFill=1;" parent="1" source="31" target="7" edge="1">
                    <mxGeometry relative="1" as="geometry">
                        <mxPoint x="181.71572875253787" y="428.28427124746213" as="targetPoint"/>
                        <mxPoint x="100" y="500" as="sourcePoint"/>
                    </mxGeometry>
                </mxCell>
                <mxCell id="39" style="edgeStyle=none;html=1;exitX=1;exitY=0.5;exitDx=0;exitDy=0;startArrow=none;startFill=0;" parent="1" source="35" target="37" edge="1">
                    <mxGeometry relative="1" as="geometry"/>
                </mxCell>
                <mxCell id="35" value="LoRaWAN Network Server" style="rounded=1;whiteSpace=wrap;html=1;fillColor=#bac8d3;strokeColor=#23445d;" parent="1" vertex="1">
                    <mxGeometry x="-160" y="250" width="120" height="60" as="geometry"/>
                </mxCell>
                <mxCell id="41" style="edgeStyle=none;html=1;exitX=1;exitY=0.5;exitDx=0;exitDy=0;startArrow=none;startFill=0;entryX=0;entryY=0.25;entryDx=0;entryDy=0;" parent="1" source="37" target="4" edge="1">
                    <mxGeometry relative="1" as="geometry">
                        <mxPoint x="150" y="140.00000000000023" as="targetPoint"/>
                        <Array as="points">
                            <mxPoint x="360" y="280"/>
                        </Array>
                    </mxGeometry>
                </mxCell>
                <mxCell id="37" value="Broker" style="ellipse;whiteSpace=wrap;html=1;aspect=fixed;fillColor=#B3B3B3;strokeColor=#36393d;" parent="1" vertex="1">
                    <mxGeometry y="240" width="80" height="80" as="geometry"/>
                </mxCell>
                <mxCell id="43" style="edgeStyle=none;html=1;exitX=0.5;exitY=1;exitDx=0;exitDy=0;exitPerimeter=0;entryX=0.5;entryY=0;entryDx=0;entryDy=0;fillColor=#999999;" edge="1" parent="1" source="42" target="10">
                    <mxGeometry relative="1" as="geometry"/>
                </mxCell>
                <mxCell id="42" value="RDB" style="shape=cylinder3;whiteSpace=wrap;html=1;boundedLbl=1;backgroundOutline=1;size=15;fillColor=#999999;strokeColor=#d6b656;" vertex="1" parent="1">
                    <mxGeometry x="680" y="230" width="80" height="80" as="geometry"/>
                </mxCell>
                <mxCell id="46" style="edgeStyle=none;html=1;exitX=1;exitY=0.5;exitDx=0;exitDy=0;entryX=0;entryY=0.5;entryDx=0;entryDy=0;" edge="1" parent="1" source="45" target="2">
                    <mxGeometry relative="1" as="geometry">
                        <Array as="points">
                            <mxPoint x="280" y="530"/>
                        </Array>
                    </mxGeometry>
                </mxCell>
                <mxCell id="45" value="Gateway" style="rounded=1;whiteSpace=wrap;html=1;fillColor=#bac8d3;strokeColor=#23445d;" vertex="1" parent="1">
                    <mxGeometry x="-20" y="500" width="120" height="60" as="geometry"/>
                </mxCell>
            </root>
        </mxGraphModel>
    </diagram>
</mxfile>